G04 #@! TF.GenerationSoftware,KiCad,Pcbnew,(6.0.7-1)-1*
G04 #@! TF.CreationDate,2022-11-14T13:05:58+03:00*
G04 #@! TF.ProjectId,mkulima_hardware,6d6b756c-696d-4615-9f68-617264776172,rev?*
G04 #@! TF.SameCoordinates,Original*
G04 #@! TF.FileFunction,Soldermask,Top*
G04 #@! TF.FilePolarity,Negative*
%FSLAX46Y46*%
G04 Gerber Fmt 4.6, Leading zero omitted, Abs format (unit mm)*
G04 Created by KiCad (PCBNEW (6.0.7-1)-1) date 2022-11-14 13:05:58*
%MOMM*%
%LPD*%
G01*
G04 APERTURE LIST*
G04 Aperture macros list*
%AMRoundRect*
0 Rectangle with rounded corners*
0 $1 Rounding radius*
0 $2 $3 $4 $5 $6 $7 $8 $9 X,Y pos of 4 corners*
0 Add a 4 corners polygon primitive as box body*
4,1,4,$2,$3,$4,$5,$6,$7,$8,$9,$2,$3,0*
0 Add four circle primitives for the rounded corners*
1,1,$1+$1,$2,$3*
1,1,$1+$1,$4,$5*
1,1,$1+$1,$6,$7*
1,1,$1+$1,$8,$9*
0 Add four rect primitives between the rounded corners*
20,1,$1+$1,$2,$3,$4,$5,0*
20,1,$1+$1,$4,$5,$6,$7,0*
20,1,$1+$1,$6,$7,$8,$9,0*
20,1,$1+$1,$8,$9,$2,$3,0*%
G04 Aperture macros list end*
%ADD10RoundRect,0.250000X0.262500X0.450000X-0.262500X0.450000X-0.262500X-0.450000X0.262500X-0.450000X0*%
%ADD11R,3.300000X2.500000*%
%ADD12C,5.500000*%
%ADD13R,1.524000X1.524000*%
%ADD14C,1.524000*%
%ADD15RoundRect,0.250000X-0.250000X-0.475000X0.250000X-0.475000X0.250000X0.475000X-0.250000X0.475000X0*%
%ADD16RoundRect,0.243750X0.456250X-0.243750X0.456250X0.243750X-0.456250X0.243750X-0.456250X-0.243750X0*%
%ADD17RoundRect,0.250000X0.450000X-0.262500X0.450000X0.262500X-0.450000X0.262500X-0.450000X-0.262500X0*%
%ADD18R,2.200000X2.200000*%
%ADD19C,2.200000*%
%ADD20R,4.000000X4.000000*%
%ADD21RoundRect,0.250000X0.475000X-0.250000X0.475000X0.250000X-0.475000X0.250000X-0.475000X-0.250000X0*%
%ADD22R,1.350000X0.400000*%
%ADD23O,1.900000X1.200000*%
%ADD24R,1.900000X1.200000*%
%ADD25C,1.450000*%
%ADD26R,1.900000X1.500000*%
%ADD27RoundRect,0.150000X0.150000X-0.587500X0.150000X0.587500X-0.150000X0.587500X-0.150000X-0.587500X0*%
%ADD28RoundRect,0.250000X-0.450000X0.262500X-0.450000X-0.262500X0.450000X-0.262500X0.450000X0.262500X0*%
%ADD29C,1.500000*%
%ADD30RoundRect,0.250000X-0.262500X-0.450000X0.262500X-0.450000X0.262500X0.450000X-0.262500X0.450000X0*%
%ADD31R,1.400000X1.390000*%
%ADD32R,4.860000X3.360000*%
%ADD33R,1.150000X1.000000*%
%ADD34RoundRect,0.250000X0.250000X0.475000X-0.250000X0.475000X-0.250000X-0.475000X0.250000X-0.475000X0*%
%ADD35R,3.500000X2.350000*%
%ADD36C,1.100000*%
%ADD37R,1.980000X1.980000*%
%ADD38C,1.980000*%
%ADD39C,1.935000*%
%ADD40R,0.900000X1.500000*%
%ADD41R,1.500000X0.900000*%
%ADD42R,4.500000X4.500000*%
%ADD43R,2.400000X2.400000*%
%ADD44C,2.400000*%
%ADD45R,0.800000X2.700000*%
%ADD46RoundRect,0.243750X0.243750X0.456250X-0.243750X0.456250X-0.243750X-0.456250X0.243750X-0.456250X0*%
%ADD47R,1.200000X0.900000*%
%ADD48RoundRect,0.150000X0.675000X0.150000X-0.675000X0.150000X-0.675000X-0.150000X0.675000X-0.150000X0*%
%ADD49R,0.900000X1.200000*%
%ADD50R,0.800000X0.300000*%
%ADD51R,0.300000X0.800000*%
%ADD52R,2.000000X2.000000*%
%ADD53RoundRect,0.250000X-0.475000X0.250000X-0.475000X-0.250000X0.475000X-0.250000X0.475000X0.250000X0*%
%ADD54RoundRect,0.250000X-1.000000X1.500000X-1.000000X-1.500000X1.000000X-1.500000X1.000000X1.500000X0*%
%ADD55C,3.200000*%
%ADD56R,1.270000X0.610000*%
%ADD57R,1.020000X0.610000*%
%ADD58R,3.810000X1.650000*%
%ADD59RoundRect,0.250000X-0.625000X0.375000X-0.625000X-0.375000X0.625000X-0.375000X0.625000X0.375000X0*%
%ADD60R,0.450000X0.600000*%
%ADD61R,4.600000X1.100000*%
%ADD62R,9.400000X10.800000*%
%ADD63RoundRect,0.218750X-0.218750X-0.256250X0.218750X-0.256250X0.218750X0.256250X-0.218750X0.256250X0*%
%ADD64R,0.250000X0.360000*%
%ADD65RoundRect,0.218750X-0.256250X0.218750X-0.256250X-0.218750X0.256250X-0.218750X0.256250X0.218750X0*%
%ADD66RoundRect,0.112500X0.112500X-0.837500X0.112500X0.837500X-0.112500X0.837500X-0.112500X-0.837500X0*%
%ADD67RoundRect,0.150000X-0.587500X-0.150000X0.587500X-0.150000X0.587500X0.150000X-0.587500X0.150000X0*%
%ADD68RoundRect,0.243750X-0.456250X0.243750X-0.456250X-0.243750X0.456250X-0.243750X0.456250X0.243750X0*%
%ADD69R,1.050000X0.650000*%
%ADD70RoundRect,0.250000X1.500000X0.550000X-1.500000X0.550000X-1.500000X-0.550000X1.500000X-0.550000X0*%
%ADD71RoundRect,0.107500X-0.555000X-0.107500X0.555000X-0.107500X0.555000X0.107500X-0.555000X0.107500X0*%
%ADD72RoundRect,0.150000X-0.150000X0.587500X-0.150000X-0.587500X0.150000X-0.587500X0.150000X0.587500X0*%
%ADD73RoundRect,0.150000X-0.512500X-0.150000X0.512500X-0.150000X0.512500X0.150000X-0.512500X0.150000X0*%
%ADD74RoundRect,0.250000X-0.550000X1.500000X-0.550000X-1.500000X0.550000X-1.500000X0.550000X1.500000X0*%
G04 APERTURE END LIST*
D10*
X172305000Y-99732500D03*
X170480000Y-99732500D03*
D11*
X120450000Y-95800000D03*
X120450000Y-89000000D03*
D12*
X182310000Y-71460000D03*
X207200000Y-71400000D03*
X182310000Y-107060000D03*
X207200000Y-107000000D03*
D13*
X188650000Y-115600000D03*
D14*
X191190000Y-115600000D03*
X193730000Y-115600000D03*
X196270000Y-115600000D03*
X198810000Y-115600000D03*
X201350000Y-115600000D03*
D15*
X135782500Y-94950000D03*
X137682500Y-94950000D03*
X137412500Y-109660000D03*
X139312500Y-109660000D03*
D16*
X165370000Y-99507500D03*
X165370000Y-97632500D03*
D17*
X95743750Y-96975000D03*
X95743750Y-95150000D03*
D18*
X153215000Y-71350000D03*
D19*
X150675000Y-71350000D03*
X148135000Y-71350000D03*
X145595000Y-71350000D03*
D20*
X127012500Y-99750000D03*
X127012500Y-108750000D03*
D21*
X79300000Y-111500000D03*
X79300000Y-109600000D03*
X93693750Y-97012500D03*
X93693750Y-95112500D03*
D22*
X77262500Y-111800000D03*
X77262500Y-112450000D03*
X77262500Y-113100000D03*
X77262500Y-113750000D03*
X77262500Y-114400000D03*
D23*
X74562500Y-116600000D03*
D24*
X74562500Y-110200000D03*
D23*
X74562500Y-109600000D03*
D25*
X77262500Y-110600000D03*
D26*
X74562500Y-112100000D03*
D25*
X77262500Y-115600000D03*
D26*
X74562500Y-114100000D03*
D24*
X74562500Y-116000000D03*
D27*
X157370000Y-99270000D03*
X159270000Y-99270000D03*
X158320000Y-97395000D03*
D28*
X141550000Y-122805000D03*
X141550000Y-124630000D03*
D29*
X118100000Y-82050000D03*
D15*
X96462500Y-85300000D03*
X98362500Y-85300000D03*
D30*
X170450000Y-101792500D03*
X172275000Y-101792500D03*
D31*
X76878500Y-81730000D03*
X76878500Y-83570000D03*
D32*
X80860500Y-82650000D03*
D33*
X91225000Y-123900000D03*
X92975000Y-123900000D03*
X92975000Y-122500000D03*
X91225000Y-122500000D03*
D34*
X89012500Y-89250000D03*
X87112500Y-89250000D03*
X89062500Y-85150000D03*
X87162500Y-85150000D03*
D35*
X104062500Y-85775000D03*
X104062500Y-91825000D03*
D36*
X129410000Y-68810000D03*
X124330000Y-68810000D03*
X126870000Y-68810000D03*
D18*
X129410000Y-71350000D03*
D19*
X126870000Y-71350000D03*
X124330000Y-71350000D03*
D37*
X148180000Y-92570000D03*
D38*
X160180000Y-92570000D03*
D39*
X154180000Y-94570000D03*
D38*
X148180000Y-80370000D03*
X160180000Y-80370000D03*
D40*
X161867500Y-106847500D03*
X160597500Y-106847500D03*
X159327500Y-106847500D03*
X158057500Y-106847500D03*
X156787500Y-106847500D03*
X155517500Y-106847500D03*
X154247500Y-106847500D03*
X152977500Y-106847500D03*
X151707500Y-106847500D03*
X150437500Y-106847500D03*
X149167500Y-106847500D03*
X147897500Y-106847500D03*
X146627500Y-106847500D03*
X145357500Y-106847500D03*
D41*
X143857500Y-110022500D03*
X143857500Y-111292500D03*
X143857500Y-112562500D03*
X143857500Y-113832500D03*
X143857500Y-115102500D03*
X143857500Y-116372500D03*
X143857500Y-117642500D03*
X143857500Y-118912500D03*
X143857500Y-120182500D03*
X143857500Y-121452500D03*
D40*
X145357500Y-124647500D03*
X146627500Y-124647500D03*
X147897500Y-124647500D03*
X149167500Y-124647500D03*
X150437500Y-124647500D03*
X151707500Y-124647500D03*
X152977500Y-124647500D03*
X154247500Y-124647500D03*
X155517500Y-124647500D03*
X156787500Y-124647500D03*
X158057500Y-124647500D03*
X159327500Y-124647500D03*
X160597500Y-124647500D03*
X161867500Y-124647500D03*
D42*
X154527500Y-115737500D03*
D18*
X141230000Y-71350000D03*
D19*
X138690000Y-71350000D03*
X136150000Y-71350000D03*
X133610000Y-71350000D03*
D21*
X98912500Y-92250000D03*
X98912500Y-90350000D03*
D15*
X74450000Y-107600000D03*
X76350000Y-107600000D03*
D10*
X137645000Y-92950000D03*
X135820000Y-92950000D03*
D43*
X79050000Y-89050000D03*
D44*
X79050000Y-92550000D03*
D21*
X108450000Y-83200000D03*
X108450000Y-81300000D03*
D43*
X174000000Y-72750000D03*
D44*
X170500000Y-72750000D03*
D17*
X96862500Y-92212500D03*
X96862500Y-90387500D03*
D45*
X129750000Y-94550000D03*
X127550000Y-94550000D03*
D46*
X89012500Y-87200000D03*
X87137500Y-87200000D03*
D30*
X153957500Y-101782500D03*
X155782500Y-101782500D03*
D47*
X82180000Y-121000000D03*
X82180000Y-124300000D03*
D48*
X135505000Y-83265000D03*
X135505000Y-81995000D03*
X135505000Y-80725000D03*
X135505000Y-79455000D03*
X130255000Y-79455000D03*
X130255000Y-80725000D03*
X130255000Y-81995000D03*
X130255000Y-83265000D03*
D49*
X86610000Y-109690000D03*
X83310000Y-109690000D03*
D50*
X91112500Y-85900000D03*
X91112500Y-86400000D03*
X91112500Y-86900000D03*
X91112500Y-87400000D03*
D51*
X92062500Y-88350000D03*
X92562500Y-88350000D03*
X93062500Y-88350000D03*
X93562500Y-88350000D03*
D50*
X94512500Y-87400000D03*
X94512500Y-86900000D03*
X94512500Y-86400000D03*
X94512500Y-85900000D03*
D51*
X93562500Y-84950000D03*
X93062500Y-84950000D03*
X92562500Y-84950000D03*
X92062500Y-84950000D03*
D52*
X92812500Y-86650000D03*
D30*
X87200000Y-83050000D03*
X89025000Y-83050000D03*
D10*
X193692500Y-118910000D03*
X191867500Y-118910000D03*
D30*
X191857500Y-120950000D03*
X193682500Y-120950000D03*
D53*
X95030000Y-122510000D03*
X95030000Y-124410000D03*
D54*
X112350000Y-86200000D03*
X112350000Y-92700000D03*
D15*
X128350000Y-85150000D03*
X130250000Y-85150000D03*
D55*
X214500000Y-70250000D03*
D30*
X87200000Y-80950000D03*
X89025000Y-80950000D03*
D55*
X214500000Y-123500000D03*
D15*
X133290000Y-102600000D03*
X135190000Y-102600000D03*
D17*
X83875000Y-93712500D03*
X83875000Y-91887500D03*
D56*
X96655000Y-79545000D03*
X96655000Y-80815000D03*
X96655000Y-82085000D03*
X96655000Y-83355000D03*
D57*
X102120000Y-83355000D03*
X102120000Y-82085000D03*
X102120000Y-80815000D03*
X102120000Y-79545000D03*
D58*
X100015000Y-80320000D03*
X100015000Y-82580000D03*
D28*
X135700000Y-117987500D03*
X135700000Y-119812500D03*
D15*
X127700000Y-91650000D03*
X129600000Y-91650000D03*
D30*
X87187500Y-95350000D03*
X89012500Y-95350000D03*
D59*
X133590000Y-106750000D03*
X133590000Y-109550000D03*
D60*
X91762500Y-81300000D03*
X91762500Y-79200000D03*
D34*
X93662500Y-83000000D03*
X91762500Y-83000000D03*
D17*
X133900000Y-91650000D03*
X133900000Y-89825000D03*
D61*
X107487500Y-100650000D03*
X107487500Y-102350000D03*
X107487500Y-104050000D03*
D62*
X116637500Y-104050000D03*
D61*
X107487500Y-105750000D03*
X107487500Y-107450000D03*
D29*
X79650000Y-96500000D03*
D63*
X75200000Y-118350000D03*
X76775000Y-118350000D03*
D64*
X89530000Y-122060000D03*
X89530000Y-121220000D03*
D65*
X90912500Y-90512500D03*
X90912500Y-92087500D03*
D10*
X97590000Y-116990000D03*
X95765000Y-116990000D03*
D49*
X169050000Y-97482500D03*
X172350000Y-97482500D03*
D21*
X83400000Y-113700000D03*
X83400000Y-111800000D03*
D10*
X155732500Y-99752500D03*
X153907500Y-99752500D03*
D17*
X131900000Y-91650000D03*
X131900000Y-89825000D03*
D66*
X85380000Y-119310000D03*
X86030000Y-119310000D03*
X86680000Y-119310000D03*
X87330000Y-119310000D03*
X87980000Y-119310000D03*
X88630000Y-119310000D03*
X89280000Y-119310000D03*
X89930000Y-119310000D03*
X90580000Y-119310000D03*
X91230000Y-119310000D03*
X91230000Y-112310000D03*
X90580000Y-112310000D03*
X89930000Y-112310000D03*
X89280000Y-112310000D03*
X88630000Y-112310000D03*
X87980000Y-112310000D03*
X87330000Y-112310000D03*
X86680000Y-112310000D03*
X86030000Y-112310000D03*
X85380000Y-112310000D03*
D53*
X86710000Y-122270000D03*
X86710000Y-124170000D03*
X83825000Y-86750000D03*
X83825000Y-88650000D03*
D29*
X139000000Y-85800000D03*
D30*
X87150000Y-93250000D03*
X88975000Y-93250000D03*
D67*
X106362500Y-116062500D03*
X106362500Y-117962500D03*
X108237500Y-117012500D03*
D21*
X112650000Y-83250000D03*
X112650000Y-81350000D03*
D10*
X139282500Y-80730000D03*
X137457500Y-80730000D03*
D43*
X161650000Y-72750000D03*
D44*
X158150000Y-72750000D03*
D68*
X137780000Y-117932500D03*
X137780000Y-119807500D03*
D15*
X94575000Y-105362500D03*
X96475000Y-105362500D03*
D69*
X136435000Y-111285000D03*
X140585000Y-111285000D03*
X140585000Y-113435000D03*
X136435000Y-113435000D03*
D15*
X91290000Y-125850000D03*
X93190000Y-125850000D03*
D29*
X105800000Y-112100000D03*
D53*
X104012500Y-80750000D03*
X104012500Y-82650000D03*
X93862500Y-79200000D03*
X93862500Y-81100000D03*
D17*
X127860000Y-82232500D03*
X127860000Y-80407500D03*
D28*
X94862500Y-90387500D03*
X94862500Y-92212500D03*
D27*
X173990000Y-99180000D03*
X175890000Y-99180000D03*
X174940000Y-97305000D03*
D46*
X137657500Y-90900000D03*
X135782500Y-90900000D03*
D10*
X88975000Y-91250000D03*
X87150000Y-91250000D03*
D36*
X120220000Y-68800000D03*
X117680000Y-68800000D03*
X115140000Y-68800000D03*
D18*
X120220000Y-71340000D03*
D19*
X117680000Y-71340000D03*
X115140000Y-71340000D03*
D29*
X76375000Y-76550000D03*
D28*
X92575000Y-101087500D03*
X92575000Y-102912500D03*
X91656250Y-95150000D03*
X91656250Y-96975000D03*
D70*
X120360000Y-113920000D03*
X114960000Y-113920000D03*
D71*
X94575000Y-101512500D03*
X94575000Y-102162500D03*
X94575000Y-102812500D03*
X94575000Y-103462500D03*
X96850000Y-103462500D03*
X96850000Y-102812500D03*
X96850000Y-102162500D03*
X96850000Y-101512500D03*
D15*
X133290000Y-100550000D03*
X135190000Y-100550000D03*
D18*
X89240000Y-71350000D03*
D19*
X86700000Y-71350000D03*
X84160000Y-71350000D03*
X81620000Y-71350000D03*
D17*
X144340000Y-79432500D03*
X144340000Y-77607500D03*
D64*
X88450000Y-122070000D03*
X88450000Y-121230000D03*
D10*
X139302500Y-83280000D03*
X137477500Y-83280000D03*
D29*
X126850000Y-113450000D03*
D18*
X101415000Y-71350000D03*
D19*
X98875000Y-71350000D03*
X96335000Y-71350000D03*
X93795000Y-71350000D03*
D29*
X103305000Y-96900000D03*
D17*
X104250000Y-117875000D03*
X104250000Y-116050000D03*
D54*
X87125000Y-99575000D03*
X87125000Y-106075000D03*
D10*
X139292500Y-78740000D03*
X137467500Y-78740000D03*
D28*
X146750000Y-97947500D03*
X146750000Y-99772500D03*
D15*
X96462500Y-87350000D03*
X98362500Y-87350000D03*
D10*
X89062500Y-78950000D03*
X87237500Y-78950000D03*
D15*
X133290000Y-104650000D03*
X135190000Y-104650000D03*
D43*
X78950000Y-100375000D03*
D44*
X78950000Y-103875000D03*
D30*
X123887500Y-80040000D03*
X125712500Y-80040000D03*
D28*
X97800000Y-95187500D03*
X97800000Y-97012500D03*
D36*
X105810000Y-68810000D03*
X110890000Y-68810000D03*
X108350000Y-68810000D03*
D18*
X110890000Y-71350000D03*
D19*
X108350000Y-71350000D03*
X105810000Y-71350000D03*
D53*
X92812500Y-90350000D03*
X92812500Y-92250000D03*
D49*
X97850000Y-125350000D03*
X101150000Y-125350000D03*
D30*
X89540000Y-109710000D03*
X91365000Y-109710000D03*
X102300000Y-94300000D03*
X104125000Y-94300000D03*
D49*
X152520000Y-97552500D03*
X155820000Y-97552500D03*
D16*
X148780000Y-99760000D03*
X148780000Y-97885000D03*
D72*
X98800000Y-120842500D03*
X96900000Y-120842500D03*
X97850000Y-122717500D03*
D28*
X163310000Y-97697500D03*
X163310000Y-99522500D03*
D73*
X131662500Y-93350000D03*
X131662500Y-94300000D03*
X131662500Y-95250000D03*
X133937500Y-95250000D03*
X133937500Y-93350000D03*
D28*
X84560000Y-122307500D03*
X84560000Y-124132500D03*
D10*
X131202500Y-122880000D03*
X129377500Y-122880000D03*
D15*
X160600000Y-104690000D03*
X162500000Y-104690000D03*
D47*
X93490000Y-117450000D03*
X93490000Y-114150000D03*
D10*
X125742500Y-82290000D03*
X123917500Y-82290000D03*
D74*
X101375000Y-101450000D03*
X101375000Y-106850000D03*
D15*
X127700000Y-89600000D03*
X129600000Y-89600000D03*
D10*
X97600000Y-115000000D03*
X95775000Y-115000000D03*
D72*
X97660000Y-109872500D03*
X95760000Y-109872500D03*
X96710000Y-111747500D03*
D10*
X131212500Y-120800000D03*
X129387500Y-120800000D03*
X139275000Y-107600000D03*
X137450000Y-107600000D03*
D21*
X110550000Y-83250000D03*
X110550000Y-81350000D03*
D15*
X160630000Y-102650000D03*
X162530000Y-102650000D03*
D55*
X76500000Y-123500000D03*
D37*
X164550000Y-92520000D03*
D38*
X176550000Y-92520000D03*
D39*
X170550000Y-94520000D03*
D38*
X164550000Y-80320000D03*
X176550000Y-80320000D03*
D55*
X76500000Y-70250000D03*
M02*
