M48
; DRILL file {KiCad (6.0.7-1)-1} date 2022 November 14, Monday 13:05:51
; FORMAT={-:-/ absolute / metric / decimal}
; #@! TF.CreationDate,2022-11-14T13:05:51+03:00
; #@! TF.GenerationSoftware,Kicad,Pcbnew,(6.0.7-1)-1
; #@! TF.FileFunction,Plated,1,2,PTH
FMAT,2
METRIC
; #@! TA.AperFunction,Plated,PTH,ViaDrill
T1C0.300
; #@! TA.AperFunction,Plated,PTH,ViaDrill
T2C0.400
; #@! TA.AperFunction,Plated,PTH,ComponentDrill
T3C0.600
; #@! TA.AperFunction,Plated,PTH,ComponentDrill
T4C0.800
; #@! TA.AperFunction,Plated,PTH,ComponentDrill
T5C0.850
; #@! TA.AperFunction,Plated,PTH,ComponentDrill
T6C1.100
; #@! TA.AperFunction,Plated,PTH,ComponentDrill
T7C1.200
; #@! TA.AperFunction,Plated,PTH,ComponentDrill
T8C1.290
; #@! TA.AperFunction,Plated,PTH,ComponentDrill
T9C1.320
; #@! TA.AperFunction,Plated,PTH,ComponentDrill
T10C3.500
%
G90
G05
T1
X88.6Y-69.575
X90.15Y-117.45
X109.4Y-86.2
X115.792Y-75.089
X116.5Y-98.0
X122.25Y-104.05
X122.5Y-102.0
X122.65Y-100.85
X123.05Y-106.4
X123.2Y-105.25
X123.6Y-102.0
X123.65Y-100.9
X124.15Y-106.4
X124.2Y-105.3
X124.7Y-97.05
X124.85Y-95.9
X124.95Y-92.5
X124.95Y-93.55
X124.95Y-94.7
X125.8Y-97.05
X125.85Y-92.55
X125.85Y-93.55
X125.85Y-94.7
X125.85Y-95.95
X126.1Y-104.8
X126.25Y-103.65
X126.589Y-76.061
X127.2Y-104.8
X127.25Y-103.7
X127.836Y-75.464
X130.0Y-103.6
X130.15Y-100.45
X130.15Y-102.45
X130.25Y-106.5
X130.3Y-99.3
X130.4Y-105.35
X131.1Y-103.6
X131.15Y-102.5
X131.25Y-100.45
X131.3Y-99.35
X131.35Y-106.5
X131.4Y-105.4
X134.4Y-78.55
X135.55Y-78.5
X136.313Y-86.792
X140.55Y-80.25
X140.7Y-77.986
X141.174Y-80.907
X141.624Y-81.8
X141.8Y-80.3
X142.902Y-80.551
X143.667Y-80.784
X151.2Y-101.5
T2
X77.35Y-107.6
X77.7Y-118.4
X79.25Y-108.65
X80.8Y-80.48
X81.05Y-76.55
X82.2Y-111.8
X83.8Y-89.85
X85.15Y-106.0
X85.95Y-85.25
X86.1Y-78.9
X86.1Y-91.55
X86.15Y-89.3
X86.75Y-125.2
X87.1Y-103.55
X87.4Y-117.45
X88.21Y-109.69
X88.45Y-122.8
X88.95Y-77.65
X88.95Y-106.05
X89.55Y-122.8
X89.75Y-126.35
X89.85Y-93.2
X89.931Y-86.238
X91.7Y-97.9
X92.35Y-114.2
X92.5Y-104.1
X94.25Y-125.85
X94.488Y-85.106
X94.85Y-83.0
X95.082Y-81.503
X95.15Y-89.15
X95.15Y-121.4
X95.38Y-84.655
X95.45Y-78.65
X95.45Y-79.65
X95.6Y-93.75
X96.25Y-124.4
X96.7Y-110.4
X96.841Y-89.596
X96.85Y-100.8
X97.263Y-85.3
X97.45Y-105.4
X98.1Y-102.15
X98.3Y-104.3
X98.8Y-103.1
X98.9Y-93.2
X99.2Y-108.3
X99.35Y-85.3
X99.45Y-87.35
X99.9Y-96.55
X100.015Y-84.065
X100.1Y-106.85
X100.15Y-90.45
X101.1Y-94.45
X101.375Y-98.925
X101.4Y-109.05
X101.798Y-123.4
X102.082Y-104.282
X102.2Y-126.5
X102.65Y-106.8
X103.302Y-123.35
X104.0Y-83.55
X104.15Y-114.9
X104.4Y-104.0
X104.75Y-126.45
X107.114Y-120.75
X107.114Y-121.75
X107.381Y-122.713
X108.438Y-80.25
X110.35Y-92.55
X110.587Y-80.3
X112.35Y-113.95
X112.45Y-90.25
X112.637Y-80.3
X115.0Y-112.45
X118.15Y-89.0
X122.7Y-82.3
X122.7Y-89.0
X126.2Y-122.65
X126.85Y-114.848
X127.3Y-85.15
X128.05Y-121.15
X128.4Y-122.9
X129.65Y-88.3
X130.5Y-91.65
X130.75Y-93.3
X131.15Y-117.05
X131.9Y-88.75
X132.3Y-97.6
X132.75Y-120.8
X133.15Y-94.3
X133.95Y-82.0
X134.0Y-96.5
X134.05Y-83.2
X134.95Y-88.25
X135.65Y-87.4
X135.75Y-96.3
X135.75Y-120.85
X135.8Y-89.45
X136.35Y-102.8
X136.4Y-104.65
X136.45Y-100.95
X139.3Y-105.7
X139.5Y-119.85
X140.5Y-112.3
X141.55Y-109.25
X142.45Y-110.0
X145.903Y-109.562
X145.903Y-110.85
X145.903Y-120.15
X147.4Y-108.6
X147.5Y-109.7
X147.897Y-105.671
X148.622Y-111.199
X149.2Y-108.9
X149.893Y-112.4
X150.2Y-97.8
X151.3Y-120.95
X152.6Y-101.6
X152.8Y-120.1
X154.18Y-91.73
X154.9Y-121.55
X159.05Y-123.0
X159.1Y-103.9
X159.25Y-100.45
X160.7Y-101.1
X163.25Y-106.202
X163.55Y-102.65
X163.55Y-104.05
X163.75Y-105.3
X164.6Y-104.153
X169.0Y-101.85
X169.4Y-99.8
X170.2Y-97.5
X194.9Y-120.95
T4
X188.65Y-115.6
X191.19Y-115.6
X193.73Y-115.6
X196.27Y-115.6
X198.81Y-115.6
X201.35Y-115.6
T5
X77.263Y-110.6
X77.263Y-115.6
T6
X81.62Y-71.35
X84.16Y-71.35
X86.7Y-71.35
X89.24Y-71.35
X93.795Y-71.35
X96.335Y-71.35
X98.875Y-71.35
X101.415Y-71.35
X105.81Y-71.35
X108.35Y-71.35
X110.89Y-71.35
X115.14Y-71.34
X117.68Y-71.34
X120.22Y-71.34
X124.33Y-71.35
X126.87Y-71.35
X129.41Y-71.35
X133.61Y-71.35
X136.15Y-71.35
X138.69Y-71.35
X141.23Y-71.35
X145.595Y-71.35
X148.135Y-71.35
X150.675Y-71.35
X153.215Y-71.35
T7
X78.95Y-100.375
X78.95Y-103.875
X79.05Y-89.05
X79.05Y-92.55
X158.15Y-72.75
X161.65Y-72.75
X170.5Y-72.75
X174.0Y-72.75
T8
X154.18Y-94.57
X170.55Y-94.52
T9
X148.18Y-80.37
X148.18Y-92.57
X160.18Y-80.37
X160.18Y-92.57
X164.55Y-80.32
X164.55Y-92.52
X176.55Y-80.32
X176.55Y-92.52
T10
X182.31Y-71.46
X182.31Y-107.06
X207.2Y-71.4
X207.2Y-107.0
T3
G00X74.212Y-109.6
M15
G01X74.912Y-109.6
M16
G05
G00X74.912Y-116.6
M15
G01X74.212Y-116.6
M16
G05
T0
M30
