G04 #@! TF.GenerationSoftware,KiCad,Pcbnew,(6.0.7-1)-1*
G04 #@! TF.CreationDate,2022-11-14T13:05:59+03:00*
G04 #@! TF.ProjectId,mkulima_hardware,6d6b756c-696d-4615-9f68-617264776172,rev?*
G04 #@! TF.SameCoordinates,Original*
G04 #@! TF.FileFunction,Soldermask,Bot*
G04 #@! TF.FilePolarity,Negative*
%FSLAX46Y46*%
G04 Gerber Fmt 4.6, Leading zero omitted, Abs format (unit mm)*
G04 Created by KiCad (PCBNEW (6.0.7-1)-1) date 2022-11-14 13:05:59*
%MOMM*%
%LPD*%
G01*
G04 APERTURE LIST*
%ADD10C,5.500000*%
%ADD11R,1.524000X1.524000*%
%ADD12C,1.524000*%
%ADD13R,2.200000X2.200000*%
%ADD14C,2.200000*%
%ADD15O,1.900000X1.200000*%
%ADD16C,1.450000*%
%ADD17C,1.100000*%
%ADD18R,1.980000X1.980000*%
%ADD19C,1.980000*%
%ADD20C,1.935000*%
%ADD21R,2.400000X2.400000*%
%ADD22C,2.400000*%
%ADD23C,3.200000*%
G04 APERTURE END LIST*
D10*
X182310000Y-71460000D03*
X207200000Y-71400000D03*
X182310000Y-107060000D03*
X207200000Y-107000000D03*
D11*
X188650000Y-115600000D03*
D12*
X191190000Y-115600000D03*
X193730000Y-115600000D03*
X196270000Y-115600000D03*
X198810000Y-115600000D03*
X201350000Y-115600000D03*
D13*
X153215000Y-71350000D03*
D14*
X150675000Y-71350000D03*
X148135000Y-71350000D03*
X145595000Y-71350000D03*
D15*
X74562500Y-116600000D03*
X74562500Y-109600000D03*
D16*
X77262500Y-110600000D03*
X77262500Y-115600000D03*
D17*
X129410000Y-68810000D03*
X124330000Y-68810000D03*
X126870000Y-68810000D03*
D13*
X129410000Y-71350000D03*
D14*
X126870000Y-71350000D03*
X124330000Y-71350000D03*
D18*
X148180000Y-92570000D03*
D19*
X160180000Y-92570000D03*
D20*
X154180000Y-94570000D03*
D19*
X148180000Y-80370000D03*
X160180000Y-80370000D03*
D13*
X141230000Y-71350000D03*
D14*
X138690000Y-71350000D03*
X136150000Y-71350000D03*
X133610000Y-71350000D03*
D21*
X79050000Y-89050000D03*
D22*
X79050000Y-92550000D03*
D21*
X174000000Y-72750000D03*
D22*
X170500000Y-72750000D03*
D23*
X214500000Y-70250000D03*
X214500000Y-123500000D03*
D21*
X161650000Y-72750000D03*
D22*
X158150000Y-72750000D03*
D17*
X120220000Y-68800000D03*
X117680000Y-68800000D03*
X115140000Y-68800000D03*
D13*
X120220000Y-71340000D03*
D14*
X117680000Y-71340000D03*
X115140000Y-71340000D03*
D13*
X89240000Y-71350000D03*
D14*
X86700000Y-71350000D03*
X84160000Y-71350000D03*
X81620000Y-71350000D03*
D13*
X101415000Y-71350000D03*
D14*
X98875000Y-71350000D03*
X96335000Y-71350000D03*
X93795000Y-71350000D03*
D21*
X78950000Y-100375000D03*
D22*
X78950000Y-103875000D03*
D17*
X105810000Y-68810000D03*
X110890000Y-68810000D03*
X108350000Y-68810000D03*
D13*
X110890000Y-71350000D03*
D14*
X108350000Y-71350000D03*
X105810000Y-71350000D03*
D23*
X76500000Y-123500000D03*
D18*
X164550000Y-92520000D03*
D19*
X176550000Y-92520000D03*
D20*
X170550000Y-94520000D03*
D19*
X164550000Y-80320000D03*
X176550000Y-80320000D03*
D23*
X76500000Y-70250000D03*
M02*
